<?xml version="1.0" encoding="utf-8"?>
<!-- Generator: Adobe Illustrator 22.0.2, SVG Export Plug-In . SVG Version: 6.00 Build 0)  -->
<svg version="1.1" id="Layer_1" xmlns="http://www.w3.org/2000/svg" xmlns:xlink="http://www.w3.org/1999/xlink" x="0px" y="0px"
	 viewBox="0 0 640 480" style="enable-background:new 0 0 640 480;" xml:space="preserve">
<style type="text/css">
	.st0{fill:#F9CDBD;}
	.st1{fill:#D38B9B;}
	.st2{fill:#CF8193;}
	.st3{fill:#CE8193;}
	.st4{fill:#CF8293;}
	.st5{fill:#70433B;}
	.st6{fill:#FCF8F9;}
	.st7{fill:#FCF9FA;}
	.st8{fill:#FDFBFC;}
	.st9{fill:#FEFDFD;}
	.st10{fill:#FCF4D7;}
	.st11{fill:#FAE54E;}
	.st12{fill:#D38E9F;}
	.st13{fill:#70443C;}
	.st14{fill:#734840;}
</style>
<path class="st0" d="M218.5,412.2c-3.5-3-7-5.9-10.5-8.9c-7.1-6-13.5-12.6-19.5-19.6c-9-10.7-16.7-22.3-22.8-34.9
	c-8-16.6-13.5-34-16-52.3c-1.5-10.9-2.2-21.8-1.6-32.7c1.2-22.1,6.2-43.2,15.4-63.5c10-22.2,24.3-41.3,42.2-57.5
	c16.1-14.5,34.3-25.6,54.7-33.2c12-4.5,24.2-7.7,36.8-9.5c6.5-0.9,13.1-1.2,19.7-1.5c15.9-0.6,31.5,1.2,46.9,5
	c24.3,6,46.3,16.9,65.8,32.5c18.9,15.1,34.2,33.4,45.5,55c9.4,18,15.7,37,18.3,57.1c1.3,10,2.1,19.9,1.7,29.9
	c-1,21.2-5.2,41.8-13.6,61.4c-6.2,14.5-14.1,27.9-23.8,40.2c-9.1,11.4-19.4,21.6-31,30.4c-0.7,0.5-1.5,1-1.9,1.9
	c-42,0-84.1,0-126.1,0C271.9,412.2,245.2,412.2,218.5,412.2z M314.9,388.4c24.4,0,42.5-2.5,60-8.1c26.6-8.5,49.9-22.2,67.3-44.4
	c17.7-22.7,24.3-48.1,16.8-76.4c-4.8-18.4-15.3-33.4-29.1-46.3c-1.2-1.1-1.7-2-1.2-3.8c3.8-14.3,2.7-28.4-2.7-42.2
	c-2.9-7.3-7.2-10-15-9c-16,2.1-29.7,8.8-40.7,20.7c-1.1,1.2-2.1,1.4-3.6,1c-8.9-2.4-18-4-27.2-4.9c-21.3-1.9-42.3-0.7-63,4.7
	c-1.7,0.4-2.9,0.2-4.2-1.2c-10-10.6-22.3-16.9-36.5-19.7c-12-2.3-16.6,0.6-20.4,12.4c-4,12.5-4.8,25.2-1.3,38c0.4,1.5,0.1,2.3-1,3.3
	c-5,4.4-9.5,9.2-13.5,14.6c-21.3,28.7-25.9,59.5-10.2,92.2c9,18.7,23.4,32.7,40.7,43.8C257.7,380.6,288.3,388.1,314.9,388.4z"/>
<path class="st1" d="M218.5,412.2c26.7,0,53.4,0,80.1,0c42,0,84.1,0,126.1,0c5.4,1.4,8.3,4.9,8.3,10.3c0,14.9,0.1,29.7,0,44.6
	c0,6.9-4.3,10.8-11.7,10.8c-66.5,0-132.9,0-199.4,0c-1.4,0-2.8-0.1-4.2-0.4c-4.6-1.1-7.6-4.8-7.6-9.6c0-15.3,0-30.5,0-45.8
	C210.2,417,213.2,413.5,218.5,412.2z M399.3,461.1c5.7,0,11.4,0,17.2,0c1.2,0,2.7,0.6,2.8-1.7c0-2.1-1.4-1.8-2.7-1.8
	c-2.9,0-5.8,0-8.7,0c-6.9,0-6.8,0-6.6-6.9c0.1-1.7,0.5-2.3,2.2-2.3c3,0.1,6,0,9,0c1.4,0,2-0.5,1.9-1.9c0-6.1-0.1-12.2,0-18.4
	c0-1.6-0.6-2.1-2.1-2.1c-1.6,0-2.1,0.6-2,2.2c0.1,1.1-0.1,2.2,0,3.3c0.2,1.8-0.5,2.5-2.4,2.4c-4.7-0.1-9.4,0-14.1,0
	c-5.3,0-5.3,0-5.4-5.4c0-1.4,0-2.5-2-2.5c-2.2,0-2.1,1.1-2.1,2.7c0,4.4,0,8.8,0,13.2c0,6.4,0,6.4,6.4,6.4c6.7,0,6.6,0,6.5,6.8
	c0,1.8-0.6,2.5-2.5,2.4c-4.3-0.1-8.6,0-12.9,0c-1.2,0-2.2-0.1-2.2,1.6c-0.1,1.8,1,1.9,2.3,1.9C387.7,461.1,393.5,461.1,399.3,461.1z
	 M260.1,436.1C260.1,436.1,260.1,436.1,260.1,436.1c0-3.5-0.1-7,0-10.5c0-1.5-0.1-2.5-2-2.4c-1.8,0-2.2,0.8-2.1,2.3
	c0.1,1.3,0,2.6,0,3.9c-0.1,5.4,0.7,4.6-4.6,4.6c-5.1,0-5.1,0-5.2-5c0-2-0.6-2.9-2.8-2.8c-5,0.1-10,0.1-15.1,0
	c-1.6,0-2.5,0.4-2.4,2.2c0.1,5,0.1,10,0,15.1c0,1.6,0.6,2.1,2.1,2.1c5.3-0.1,10.6-0.1,16,0c1.5,0,2.1-0.5,2.2-2.1c0.4-6,0.4-6,6.6-6
	c0.4,0,0.8,0,1.2,0c1.4-0.1,2,0.5,2,1.9c-0.1,2.5,0.1,5,0,7.5c-0.1,1.6,0.5,2.1,2.1,2.1c1.5,0,2.1-0.5,2.1-2.1
	C260,443.3,260.1,439.7,260.1,436.1z M350.2,466c4,0,8,0,12.1,0c1.2,0,2.8,0.6,2.7-1.7c-0.1-2-1.7-1.4-2.7-1.4
	c-6.8-0.1-13.7-0.1-20.5,0c-2,0-2.3-0.9-2.3-2.5c0-1.6,0.5-2.3,2.2-2.3c4.7,0.1,9.4,0,14.2,0c7.9,0,7.9,0,7.8-7.8c0-2.2-0.7-3-2.9-3
	c-7.5,0.1-15.1,0-22.6,0.1c-1.2,0-2.8-0.5-2.8,1.7c0,2.2,1.5,1.7,2.7,1.8c6.2,0,12.5,0,18.7,0c1.6,0,2.9-0.1,2.9,2.2
	c0,2.2-1.3,2-2.7,2c-4.4,0-8.8,0-13.3,0c-8.8,0-8.7,0-8.2,8.9c0.1,1.6,0.6,2.1,2.1,2C341.8,465.9,346,466,350.2,466z M295.7,449.6
	c-3-0.2-6.1,0.4-9.1,1.6c-3,1.3-5.1,3.5-5.1,6.8c0,3.1,1.8,5.4,4.5,6.5c6.8,2.8,13.7,3.1,20.3-0.4c5.3-2.8,5.3-8.9,0.3-12.1
	C303.4,450,299.7,449.5,295.7,449.6z M245.7,450.2c-3.4-0.2-6.6,0.2-9.7,1.6c-2.7,1.2-4.7,3-4.8,6.3c-0.1,3.4,1.7,5.6,4.6,6.7
	c6.5,2.6,13.1,2.6,19.6-0.1c2.8-1.1,4.7-3.2,4.7-6.4c0-3.3-2.1-5.3-5-6.6C252.1,450.5,249,450,245.7,450.2z M328.9,434.2
	c-0.2,5.6,4.7,10.2,12,9.8c6.1-0.4,9.9-3.9,10.3-8.6c0.5-6.4-5-11.4-11.9-10.7C332.9,425.3,328.9,429,328.9,434.2z M305.9,435.9
	c0,3.7,0.1,7.4,0,11.1c-0.1,2.3,1.4,2.1,2.8,1.8c1.5-0.3,0.9-1.6,0.9-2.5c0-4.4-0.5-4.1,4-4.1c0.4,0,0.8,0,1.2,0
	c1.3,0,1.4-0.9,1.4-1.8c0-0.9-0.2-1.6-1.3-1.6c-0.8,0-1.6-0.1-2.4,0c-2.3,0.3-2.9-0.6-2.9-2.8c0-2.4,0.5-3.6,3.1-3.2
	c0.8,0.1,1.6,0,2.4,0c0.9-0.1,1.1-0.8,1.1-1.5c0-0.7-0.1-1.5-1-1.5c-0.8-0.1-1.6-0.1-2.4,0c-2.6,0.4-3.5-0.7-3.1-3.2
	c0.1-0.5,0-1,0-1.5c0.1-1.4-0.4-2-1.9-2c-1.5,0-1.9,0.6-1.9,2C305.9,428.7,305.9,432.3,305.9,435.9z M278.2,435.5
	C278.2,435.5,278.2,435.5,278.2,435.5c0,2.5,0.1,5,0,7.5c-0.1,1.6,0.4,2.5,2.2,2.3c6.4-0.6,12.8-0.3,19.2-1.7
	c1.3-0.3,2.5-0.4,2.1-2.1c-0.3-1.8-1.5-1.4-2.8-1.2c-4.7,0.8-9.5,1.2-14.3,1.5c-2.2,0.2-2.7-0.7-2.7-2.7c0.1-3.8,0-7.6,0.1-11.4
	c0-1.4-0.4-2-1.9-2c-1.5,0-1.9,0.6-1.9,2C278.2,430.2,278.2,432.8,278.2,435.5z M359.6,434.1c0,3.1,0.1,6.2,0,9.3
	c-0.1,1.6,0.6,2.1,2.1,2c1.3,0,2-0.3,2-1.8c-0.1-6.2-0.1-12.4,0-18.6c0-1.5-0.6-1.9-2-1.9c-1.5,0-2.2,0.4-2.1,2
	C359.7,428.1,359.6,431.1,359.6,434.1z"/>
<path class="st2" d="M532.6,117.7c3.1-1.2,5.6-2.1,8.2-3.1c3.3-1.2,6.8-1.9,10.3-1.9c7.9,0,13.4,7.1,11,14.6
	c-3.4,10.3-9.4,19.3-15.4,28.2c-3.4,5.1-7.1,10-11.7,14.1c-4.6,4.2-7,4.4-12.3,1.1c-1.4-0.9-2.9-1.9-4.1-3c-3.1-2.9-3.1-5.4,0.2-8.1
	c7.3-6.3,13.2-13.7,18.5-21.7c1-1.5,3.2-3.5,2-4.9c-1.3-1.6-3.7,0.1-5.5,0.9c-6,2.6-11.4,6.3-17,9.7c-1.8,1.1-3.7,3.2-6.3,1.6
	c-3.1-1.9-5.8-4.3-6.9-8c-0.4-1.2,0.4-2.1,1-3.1c3.7-6.1,7.4-12.2,11-18.3c0.5-0.8,0.9-1.6,1.3-2.4c0.4-1,1.6-2.1,0.7-3
	c-1-1-2.3,0-3.3,0.6c-8.7,5.1-16.9,10.9-23.9,18.2c-3.7,3.9-6.2,3.7-9.6-0.5c-0.5-0.6-0.9-1.3-1.4-2c-4.6-6.9-4.5-9.9,1.8-15.3
	c12.4-10.4,26.2-18.5,41.6-23.7c7.7-2.6,15.7,3.3,15.5,11.3c-0.1,4.3-1,8.6-2.9,12.5C534.6,113.5,533.7,115.3,532.6,117.7z"/>
<path class="st3" d="M173.6,48.6c11.2,0,21,3.4,29.2,11.3c5,4.8,6.4,10.8,6.3,17.5c-0.2,16.9-10,27.1-23.9,34.3
	c-5.8,3-11.8,5.4-17.8,8.1c-2.1,0.9-4,0.8-5.3-1.3c-9.9-16.4-20.1-32.6-25.2-51.4c-0.8-2.9-0.1-5,2.5-6.6
	c8.4-5.1,16.8-10.2,26.9-11.4C168.8,48.8,171.2,48.8,173.6,48.6z M189.7,78.6c0.1-4.8-2.5-8.5-7.1-9.5c-6.7-1.4-13.2,0.1-19.2,3.3
	c-1.9,1-2.5,2.6-1.6,4.8c1.9,4.9,4.1,9.6,6.6,14.2c0.9,1.6,2,2.2,3.9,1.9c6.1-1.2,10.9-4.5,15-8.9C188.8,82.8,189.7,80.9,189.7,78.6
	z"/>
<path class="st3" d="M251.6,15.5c10.9,0,18.1,6.1,22.1,17.4c6.9,19.1-5.8,40.5-17.2,47.2c-10.1,5.9-24.4,5.4-32.9-1.7
	c-5.5-4.6-7.8-11-8.5-17.8c-1.8-19,12.6-40.7,31.7-44.6C248.4,15.7,250,15.7,251.6,15.5z M242.6,46.4c-3-0.1-5.6,0.6-7.3,3.3
	c-1.8,2.8-1,5.7,0.5,8.3c2.1,3.5,5.5,5.7,9.4,6.5c6.3,1.3,10.7-4.1,8.7-10.1C252.4,49.6,247.9,46.5,242.6,46.4z"/>
<path class="st2" d="M580.3,150.5c2.1,0,3.8,0.8,5.2,2.2c8.6,8.6,16.4,17.9,21.5,29.2c0.4,0.9,0.8,1.8,1.1,2.8
	c2.8,7.9,1.9,10.5-5.1,15.1c-4.3,2.8-6.7,2-8.3-2.9c-2.7-8.4-6.7-16.1-11.8-23.2c-1.6-2.3-2.9-2.7-5.3-1.2c-6.2,3.7-6.2,3.5-2.2,9.6
	c2,3,4,6,5.8,9.2c1.7,3,1.1,5-1.9,6.8c-5.5,3.4-8.6,3-12.7-2.1c-2.3-2.9-4.5-5.9-6.6-9c-1-1.4-1.8-1.7-3.1-0.5
	c-0.1,0.1-0.2,0.1-0.2,0.2c-4.8,3.8-4.9,3.8-1.6,9c4.7,7.3,9.8,14.2,16.1,20.2c3.1,2.9,2.8,5.1-0.5,7.7c-6.6,5.2-11.4,4.8-17-1.6
	c-8-9.2-13.9-19.9-19.9-30.4c-2.7-4.8-2.6-9.4,1.4-13.6c11.4-11.8,24.8-20.6,40.1-26.4C576.9,151,578.6,150.9,580.3,150.5z"/>
<path class="st2" d="M62.1,156.1c15.2,0.7,30.1,2.9,44.5,7.9c8.9,3.1,10.3,7.3,6.6,18c-1,2.8-3.1,3.5-5.8,2.7
	c-3.1-0.8-6.2-1.6-9.3-2.5c-1.8-0.5-2.7-0.3-3.2,1.8c-1.3,4.9-3.2,9.5-5.7,13.9c-0.9,1.5-0.6,2.3,0.7,3.2c1.9,1.5,3.8,3,5.6,4.6
	c2.5,2.2,2.7,4.1,1,6.9c-1.9,3.1-4.6,5.2-7.7,7c-2.5,1.4-4.9,0.6-7.2-0.5c-4.4-2.1-8.1-5.2-11.6-8.5c-9.3-8.7-17.7-18-24.7-28.7
	c-0.7-1.1-1.4-2.2-2-3.4c-4.9-9.5,0.2-19.8,10.8-21.9C56.6,156.2,59.3,156,62.1,156.1z M68.8,178.4c3.8,5.4,7.9,9.6,11.8,13.9
	c1.2,1.3,1.7,0,2.2-0.8c1.6-3,2.9-6.2,4-9.4c0.5-1.4,0.1-2.1-1.3-2.3C80.2,179.2,74.9,178.4,68.8,178.4z"/>
<path class="st2" d="M327.2,57c-4.2-1.9-6.3-4.9-5.6-9.6c0.5-3.2,1.5-4.3,4.7-4.1c6.4,0.5,12.1,3.5,17.8,6.3c2.2,1,4.2,2.3,6.3,3.5
	c2.1,1.2,2.7,3.1,1.4,5.1c-5,7.9-11.6,13.5-21.4,14.1c-10.6,0.7-20.4-1.3-28.9-7.9c-8.6-6.6-13.3-15.5-14.6-26.1
	c-1.7-13.7,4.9-23.8,18.7-29.4c10.9-4.3,22.1-5.8,33.6-3c9.2,2.2,10.6,4,8.3,14.2c-0.2,1.1-0.7,2.1-1.2,3.1c-2,3.9-3.8,4.8-8.1,3.2
	c-7.1-2.6-14.1-2.6-21.2,0c-6.8,2.5-10.9,7.7-10.8,13.7c0.1,7.9,4.2,13.5,11.5,15.9C320.6,57.1,323.7,57.6,327.2,57z"/>
<path class="st4" d="M45.1,277.8c-17.7,0.1-26.5-11.3-28.5-26.2c-1.4-10.4,0.3-20.4,4.3-30c1.4-3.3,3.2-6.3,5.7-8.8
	c1.7-1.7,3.7-2.2,6-1.4c3.1,1.1,6,2.3,8.4,4.5c3.4,3.1,3.7,5.2,1.1,8.9c-4.4,6.1-6.1,13-5.6,20.4c0.4,6.3,4.1,11.9,9.3,13.6
	c7.2,2.3,13.7,0.7,18-4.6c5.2-6.5,7-13.8,4.8-22c-1.3-4.8-0.1-7.7,4-10.2c3.3-2,5.4-1.4,7.5,1.9c6.5,10.3,5.8,20.8,0.8,31.3
	C73.7,270,61.6,277.4,45.1,277.8z"/>
<path class="st4" d="M560.9,249.2c0.6-5,0.9-10.8,3.7-16.1c1.7-3.2,8.5-5.7,11.8-4.4c2.4,0.9,1.3,2.6,0.7,4c-2,4.2-3.1,8.4-2.9,13.1
	c0.1,1.9,0.6,3.8,1.3,5.5c0.5,1.3,1.4,2.5,3,2.5c1.6,0,2.2-1.3,2.7-2.5c2-5,4-10.1,5.9-15.1c5.5-14.7,18.8-12.4,26.2-5
	c5.4,5.4,7.4,12.5,9.2,19.6c1.2,5,0.5,9.8-0.8,14.5c-0.6,2.2-4.8,5.7-7.2,5.9c-2.4,0.2-3.9-1.1-4.1-3.4c-0.3-3.1-0.4-6.2-0.4-9.3
	c0-2.1-0.2-4.2-0.9-6.2c-0.9-2.4-2.8-2.6-4.2-0.5c-1.7,2.5-2.6,5.4-3.4,8.3c-1,4.1-2.4,8.1-4.1,11.9c-4,8.9-11.4,11.7-20.3,7.7
	c-5.3-2.4-9.2-6.4-11.6-11.7C562.7,262.3,560.9,256.4,560.9,249.2z"/>
<path class="st2" d="M420.9,92.3c-0.3,0-1.2,0.1-2.1-0.1c-10.7-2.3-10.4-3.3-9.3-11.8c0.8-6.3,2.8-12.3,3.4-18.6
	c1.1-10.1,1.2-9.2-6.5-13.1c-2.6-1.3-5.4-2.2-7.7-4.1c-1.7-1.4-2.5-3-2.5-5.2c0.1-5,1.4-9.7,3-14.3c0.9-2.5,2.5-3.1,4.9-1.9
	c14.6,7.3,30.4,9.6,46.4,11.3c0.9,0.1,1.8,0.2,2.7,0.4c5,1,5.9,2.1,5.8,7.1c0,0.7,0,1.4-0.1,2.1c-2.5,12.6-3.6,12.5-14.1,12.7
	c-7.4,0.1-8.3,1-10.2,8.2c-1.9,7.5-3.2,15.1-5.8,22.4C427.3,91.6,426.2,92.3,420.9,92.3z"/>
<path class="st3" d="M130.4,94.1c-0.5,2.8-1.8,5.4-2.8,8.1c-2.6,6.6-2,8.3,3.5,12.4c6.2,4.7,12.8,9.1,18.5,14.5
	c3.3,3.1,3.5,4.6,1.5,8.8c-1.3,2.8-3.2,5.1-5.2,7.3c-1.8,1.8-3.7,2.3-6.2,1.1c-5.4-2.6-10.1-6.1-14.9-9.6c-3.1-2.2-6.4-4.1-9.7-6
	c-2.4-1.3-4.4-1.1-6.3,0.6c-2.4,2-4.7,4-7.1,6c-4.4,3.8-6.7,4.1-11.6,1.2c-3.3-1.9-6.3-4.2-9.1-6.9c-2.2-2.2-2.3-3.7,0-5.5
	c12.5-10.4,20.8-24,28.6-37.9c3.9-7,6.2-7.8,13-3.4c2.5,1.6,4.8,3.3,6.6,5.7C129.9,91.4,130.3,92.6,130.4,94.1z"/>
<path class="st4" d="M479.9,46.4c1.5,0.1,3.2,0.8,4.8,1.7c5.7,3.2,10.9,7.1,15.7,11.6c4.2,3.9,3.7,11.9-0.6,15.5
	c-0.9,0.7-1.8,0.9-2.8,0.5c-0.7-0.3-1.5-0.7-2.2-1.1c-4.9-2.8-5-2.9-8.6,1.6c-6,7.3-11.3,15.1-15.9,23.4c-1,1.8-0.8,2.8,0.9,3.9
	c1,0.6,1.9,1.4,2.9,2.2c3.1,2.6,3.3,4.3,1.1,7.7c-3.7,5.8-7.5,6.7-13.4,3.2c-5.2-3.1-10-6.8-14.5-10.8c-4.5-4-4.2-11.8,0.4-15.7
	c1.4-1.2,2.8-0.9,4.1,0c1.2,0.8,1.9,0.8,2.8-0.6c5.5-9.6,12.2-18.4,19.5-26.7c1.2-1.3,1.1-1.9-0.3-2.9c-3.8-3-4-5-0.9-8.8
	C475.4,47.8,477.5,46.4,479.9,46.4z"/>
<path class="st5" d="M314.9,388.4c-26.5-0.3-57.2-7.7-84.8-25.5c-17.3-11.1-31.7-25.1-40.7-43.8c-15.7-32.7-11.1-63.5,10.2-92.2
	c4-5.3,8.5-10.1,13.5-14.6c1.1-1,1.4-1.8,1-3.3c-3.5-12.8-2.6-25.5,1.3-38c3.7-11.8,8.4-14.7,20.4-12.4c14.2,2.8,26.5,9.1,36.5,19.7
	c1.3,1.4,2.5,1.7,4.2,1.2c20.7-5.4,41.8-6.6,63-4.7c9.2,0.8,18.3,2.5,27.2,4.9c1.6,0.4,2.5,0.2,3.6-1c11.1-11.8,24.8-18.6,40.7-20.7
	c7.9-1,12.2,1.7,15,9c5.4,13.8,6.5,27.8,2.7,42.2c-0.5,1.8,0,2.7,1.2,3.8c13.8,12.9,24.2,27.9,29.1,46.3
	c7.4,28.3,0.9,53.7-16.8,76.4c-17.4,22.3-40.7,35.9-67.3,44.4C357.3,385.9,339.3,388.4,314.9,388.4z M366.9,189.5
	c-7.3-2.1-14.7-3.8-22.3-4.4c-2.6-0.7-5.2-0.9-7.8-0.9c-9.2-1-18.5-1.4-27.7-0.3c-2.6-0.2-5.1,0.2-7.6,0.6c-7.6,0.7-15.2,2-22.6,4.1
	c-2,0.5-4.1,0.8-6.1,1.5c-1.8,0.7-2.9,0.2-4-1.4c-3.2-4.8-7.4-8.7-12.3-11.9c-8-5.2-16.6-8.9-26.3-9.6c-1.8-0.1-3.6-0.1-4.4,2.1
	c-5.1,13.9-7.1,27.8-0.8,41.8c0.7,1.7,0.6,2.5-0.8,3.7c-8.5,6.8-15.9,14.7-21.8,23.9c-9.9,15.4-14.5,32.1-12.4,50.4
	c2.2,19.4,11,35.8,24.8,49.3c29.8,29.2,66.8,40.1,107.6,40.3c19.9,0,39.1-3.3,57.7-10.3c23-8.7,43-21.6,57.5-41.9
	c14-19.7,18.8-41.4,12.5-65.1c-4.6-17.4-14.8-31.4-28-43.3c-1.6-1.4-3.8-2.5-4.6-4.2c-0.9-2,1.4-3.9,2-5.9
	c4.2-12.7,2.5-25.1-1.6-37.4c-1.1-3.4-3.4-3.8-6.3-3.4c-14.1,2.1-26.4,7.9-35.4,19.1C373.2,190,370.9,191.5,366.9,189.5z"/>
<path class="st6" d="M399.3,461.1c-5.8,0-11.6,0-17.5,0c-1.3,0-2.4-0.1-2.3-1.9c0-1.7,1.1-1.6,2.2-1.6c4.3,0,8.6-0.1,12.9,0
	c1.8,0,2.4-0.6,2.5-2.4c0.2-6.8,0.2-6.8-6.5-6.8c-6.4,0-6.4,0-6.4-6.4c0-4.4,0-8.8,0-13.2c0-1.5,0-2.7,2.1-2.7c2,0,2,1.1,2,2.5
	c0.1,5.4,0.1,5.4,5.4,5.4c4.7,0,9.4-0.1,14.1,0c1.9,0,2.5-0.6,2.4-2.4c-0.1-1.1,0-2.2,0-3.3c-0.1-1.5,0.4-2.2,2-2.2
	c1.5,0,2.1,0.5,2.1,2.1c-0.1,6.1-0.1,12.2,0,18.4c0,1.4-0.5,1.9-1.9,1.9c-3-0.1-6,0.1-9,0c-1.7-0.1-2.2,0.6-2.2,2.3
	c-0.2,6.9-0.3,6.9,6.6,6.9c2.9,0,5.8,0,8.7,0c1.3,0,2.7-0.3,2.7,1.8c0,2.2-1.6,1.6-2.8,1.7C410.7,461.1,405,461.1,399.3,461.1z
	 M399.1,445.3c1.9,0,3.8,0,5.7,0c6.3-0.1,5.3,1.2,5.5-5.6c0.1-2.2-0.7-2.7-2.8-2.7c-4.5,0.1-9,0-13.5,0c-6,0-5.9,0-5.7,6.1
	c0.1,1.7,0.7,2.3,2.3,2.2C393.5,445.3,396.3,445.3,399.1,445.3z"/>
<path class="st7" d="M260.1,436.1c0,3.6-0.1,7.2,0,10.8c0,1.6-0.6,2.1-2.1,2.1c-1.6,0-2.2-0.5-2.1-2.1c0.1-2.5,0-5,0-7.5
	c0-1.4-0.5-2-2-1.9c-0.4,0-0.8,0-1.2,0c-6.2,0-6.3,0-6.6,6c-0.1,1.6-0.6,2.1-2.2,2.1c-5.3-0.1-10.6-0.1-16,0c-1.5,0-2.2-0.5-2.1-2.1
	c0.1-5,0.1-10,0-15.1c0-1.8,0.9-2.2,2.4-2.2c5,0.1,10,0.1,15.1,0c2.2-0.1,2.7,0.8,2.8,2.8c0,5,0.1,5,5.2,5c5.3-0.1,4.5,0.8,4.6-4.6
	c0-1.3,0.1-2.6,0-3.9c-0.1-1.6,0.3-2.3,2.1-2.3c1.9,0,2.1,1,2,2.4C260,429,260.1,432.6,260.1,436.1
	C260.1,436.1,260.1,436.1,260.1,436.1z M230,436.1c0,6.4,0,6.4,5.6,6.4c6.5,0,6.5,0,6.5-6.7c0-6.1,0-6.1-5.9-6.1
	C230,429.7,230,429.7,230,436.1z"/>
<path class="st6" d="M350.2,466c-4.2,0-8.4,0-12.7,0c-1.5,0-2.1-0.4-2.1-2c-0.5-8.9-0.5-8.9,8.2-8.9c4.4,0,8.8,0,13.3,0
	c1.4,0,2.7,0.2,2.7-2c0-2.4-1.3-2.3-2.9-2.2c-6.2,0-12.5,0-18.7,0c-1.2,0-2.7,0.4-2.7-1.8c0-2.2,1.6-1.7,2.8-1.7
	c7.5,0,15.1,0.1,22.6-0.1c2.3,0,2.9,0.7,2.9,3c0,7.8,0.1,7.8-7.8,7.8c-4.7,0-9.4,0.1-14.2,0c-1.8,0-2.2,0.7-2.2,2.3
	c0,1.7,0.3,2.6,2.3,2.5c6.8-0.1,13.7-0.1,20.5,0c1,0,2.6-0.7,2.7,1.4c0.1,2.3-1.6,1.6-2.7,1.7C358.3,466,354.2,466,350.2,466z"/>
<path class="st7" d="M295.7,449.6c4-0.1,7.7,0.3,10.9,2.4c5,3.3,5,9.3-0.3,12.1c-6.6,3.5-13.5,3.2-20.3,0.4
	c-2.8-1.1-4.6-3.5-4.5-6.5c0-3.3,2.1-5.5,5.1-6.8C289.6,450,292.7,449.4,295.7,449.6z M296,452.7c-2.9,0.1-5.7,0.3-8.2,1.8
	c-3.1,1.9-3.2,5.6,0.1,7.2c5.1,2.5,10.4,2.5,15.6,0.1c1.5-0.7,2.5-1.9,2.5-3.8c0-1.9-1.1-3-2.6-3.7
	C301.1,453.1,298.5,452.8,296,452.7z"/>
<path class="st7" d="M245.7,450.2c3.2-0.2,6.4,0.2,9.4,1.5c2.8,1.2,4.9,3.3,5,6.6c0,3.2-1.9,5.3-4.7,6.4c-6.5,2.6-13.1,2.6-19.6,0.1
	c-2.9-1.1-4.7-3.3-4.6-6.7c0.1-3.3,2.1-5.1,4.8-6.3C239.1,450.5,242.4,450,245.7,450.2z M244.9,453.3c-2.3,0-5.2,0.3-7.8,1.8
	c-2.7,1.6-2.7,5.2,0.1,6.5c5.4,2.5,11.1,2.7,16.5,0c3.2-1.5,3-5.1-0.1-6.8C251.2,453.5,248.4,453.2,244.9,453.3z"/>
<path class="st8" d="M328.9,434.2c0.1-5.2,4.1-8.9,10.4-9.6c6.9-0.7,12.4,4.3,11.9,10.7c-0.4,4.7-4.2,8.3-10.3,8.6
	C333.6,444.4,328.7,439.8,328.9,434.2z M340.1,427.9c-4.2,0-7.4,2.7-7.5,6.3c-0.1,3.6,3.1,6.4,7.3,6.4c4.4,0.1,7.6-2.7,7.6-6.4
	C347.4,430.6,344.3,427.9,340.1,427.9z"/>
<path class="st8" d="M305.9,435.9c0-3.6,0-7.2,0-10.8c0-1.4,0.4-2,1.9-2c1.5,0,2,0.6,1.9,2c0,0.5,0.1,1,0,1.5
	c-0.4,2.5,0.5,3.6,3.1,3.2c0.8-0.1,1.6,0,2.4,0c1,0.1,1,0.8,1,1.5c0,0.8-0.1,1.4-1.1,1.5c-0.8,0.1-1.6,0.1-2.4,0
	c-2.6-0.4-3.2,0.8-3.1,3.2c0,2.3,0.7,3.2,2.9,2.8c0.8-0.1,1.6,0,2.4,0c1.1,0,1.3,0.7,1.3,1.6c0,1-0.1,1.8-1.4,1.8
	c-0.4,0-0.8,0-1.2,0c-4.5,0-3.9-0.3-4,4.1c0,0.9,0.5,2.2-0.9,2.5c-1.4,0.2-2.9,0.5-2.8-1.8C305.9,443.4,305.9,439.6,305.9,435.9z"/>
<path class="st8" d="M278.2,435.5c0-2.6,0-5.2,0-7.8c0-1.4,0.4-2,1.9-2c1.5,0,1.9,0.6,1.9,2c-0.1,3.8,0.1,7.6-0.1,11.4
	c-0.1,2.1,0.5,2.9,2.7,2.7c4.8-0.3,9.6-0.7,14.3-1.5c1.2-0.2,2.4-0.6,2.8,1.2c0.3,1.8-0.9,1.9-2.1,2.1c-6.3,1.3-12.8,1.1-19.2,1.7
	c-1.8,0.2-2.3-0.6-2.2-2.3C278.3,440.5,278.2,438,278.2,435.5C278.2,435.5,278.2,435.5,278.2,435.5z"/>
<path class="st8" d="M359.6,434.1c0-3,0.1-6,0-9c-0.1-1.7,0.7-2,2.1-2c1.4,0,2,0.4,2,1.9c0,6.2,0,12.4,0,18.6c0,1.5-0.7,1.8-2,1.8
	c-1.5,0-2.2-0.4-2.1-2C359.7,440.3,359.6,437.2,359.6,434.1z"/>
<path class="st9" d="M301.4,184.5c2.5-0.5,5-0.8,7.6-0.6c0.2,1.3,0.4,2.6,0.6,3.8c1.3,7.4,2.6,14.7,6,21.5c1.4,2.8,3.2,5.3,6.6,6
	c0,17.3,0,34.6,0.1,51.9c-2.5,0.4-5.1,0.7-7.6,1.2c-2.4,0.6-3.8,2.9-2.4,4.5c3,3.7,5.6,8,10.1,10.3c0,0.6,0,1.2,0,1.8
	c-3.3,0.7-4.7,2.8-4.5,6.1c0.1,2.2-0.1,4.4,0,6.6c0.1,2.2-0.6,4-1.9,5.8c-5.3,6.8-11.2,8.7-19.4,5.9c-4-1.4-7.6-3.6-11-6.1
	c-2.2-1.6-5-1-6.5,0.9c-1.4,1.9-1.2,4.7,0.7,6.3c7.2,5.7,15.1,9.6,24.5,9.4c7.4-0.1,13.1-3.9,18-9.1c0,22.7,0,45.4,0,68.2
	c-40.8-0.2-77.7-11.1-107.6-40.3c-13.8-13.5-22.6-29.9-24.8-49.3c-2-18.3,2.5-35,12.4-50.4c5.9-9.2,13.3-17.1,21.8-23.9
	c1.5-1.2,1.6-2,0.8-3.7c-6.2-14.1-4.3-28,0.8-41.8c0.8-2.2,2.6-2.3,4.4-2.1c9.7,0.7,18.3,4.4,26.3,9.6c4.8,3.1,9,7,12.3,11.9
	c1.1,1.6,2.1,2,4,1.4c2-0.7,4.1-1,6.1-1.5c0.9,5.5,1.8,11.1,4.2,16.2c1.4,3,2.6,6.6,6.5,6.6c4.1,0.1,5.5-3.6,6.9-6.6
	C299.2,198.4,300.5,191.5,301.4,184.5z M223.4,287.4c2.6,0,5.2,0.1,7.8,0c2.9-0.1,4.9-2.2,4.8-4.7c0-2.5-1.9-4.5-4.7-4.6
	c-5.1-0.1-10.2-0.1-15.3,0c-3,0.1-4.8,2.1-4.8,4.7c0,2.6,1.9,4.5,4.9,4.6C218.6,287.5,221,287.4,223.4,287.4z M219.5,257.4
	c-2.6,0.2-4.4,1.3-4.9,3.6c-0.6,2.5,0.5,4.5,2.8,5.3c5,1.8,10.1,3.3,15.1,4.8c2.6,0.7,4.9-0.7,5.7-3.2c0.7-2.3-0.6-4.8-3.2-5.7
	c-3-1.1-6.1-2-9.1-2.9C223.7,258.7,221.5,258,219.5,257.4z M238.4,299.7c-0.1-3.3-3.1-5.3-6.5-4.3c-4.6,1.3-9.2,2.8-13.7,4.3
	c-2.8,0.9-4.2,3.4-3.5,5.8c0.8,2.6,3.3,4,6.2,3.1c4.7-1.4,9.4-2.9,14-4.4C237,303.5,238.2,301.9,238.4,299.7z M265.5,256.8
	c0,3.6,3,6.5,6.5,6.5c3.6,0,6.8-3.2,6.7-6.7c-0.1-3.5-3-6.5-6.6-6.5C268.4,250.1,265.5,253.1,265.5,256.8z"/>
<path class="st10" d="M322.2,285c0-0.6,0-1.2,0-1.8c0.6-0.2,1.3-0.3,1.7-0.7c3-2.9,5.6-6.3,7.8-9.9c1.1-1.9-0.1-3.8-2.3-4.3
	c-2.3-0.6-4.7-0.8-7.1-1.2c0-17.3,0-34.6-0.1-51.9c4.2-0.2,6-3.2,7.7-6.4c4-7.7,5.4-16.3,6.9-24.7c2.6,0,5.3,0.2,7.8,0.9
	c0.4,2.9,0.7,5.8,1.3,8.6c1.2,5.3,2.2,10.6,5.5,15.1c2.5,3.5,5.7,3.6,8.5,0.3c0.7-0.8,1.2-1.8,1.8-2.8c2.9-5.2,3.9-11.1,5.2-16.8
	c4.1,2,6.4,0.5,9.2-3c9-11.2,21.3-17,35.4-19.1c2.9-0.4,5.2,0,6.3,3.4c4.2,12.3,5.8,24.7,1.6,37.4c-0.7,2-2.9,3.9-2,5.9
	c0.8,1.7,3,2.8,4.6,4.2c13.3,11.9,23.4,25.9,28,43.3c6.3,23.6,1.5,45.3-12.5,65.1c-14.5,20.3-34.5,33.3-57.5,41.9
	c-18.6,7-37.9,10.3-57.7,10.3c0-22.7,0-45.4,0-68.2c0.6-1.5,1.2-2.1,2.7-0.7c3.6,3.4,7.7,6.1,12.6,7.5c11.4,3.3,20.6-1.1,28.9-8.4
	c2.7-2.3,3-5.2,1-7.4c-1.9-2-4.6-1.9-7.2,0.4c-2.8,2.5-5.8,4.6-9.3,6c-5.9,2.2-11.4,1.2-16.5-2.4c-4.7-3.3-8.6-7-7.3-13.5
	c0.1-0.4,0-0.8,0-1.2C327,287.3,326.1,286.1,322.2,285z M415.1,287.4c2.4,0,4.8,0.1,7.2,0c3.1-0.1,5.2-2,5.3-4.6
	c0-2.6-2.1-4.7-5.2-4.7c-4.8-0.1-9.6-0.1-14.4,0c-3.1,0-5.2,2-5.3,4.6c0,2.7,2.2,4.7,5.5,4.7C410.5,287.5,412.8,287.4,415.1,287.4z
	 M405.7,295c-2.7,0.1-4.5,1.1-5.1,3.5c-0.5,2.4,0.3,4.5,2.7,5.4c5.1,1.7,10.2,3.4,15.4,4.8c2.5,0.7,4.8-0.9,5.4-3.1
	c0.7-2.5-0.5-4.8-3.1-5.8c-3-1.1-6.1-1.9-9.1-2.9C409.7,296.3,407.5,295.6,405.7,295z M424.2,262c0-3-2.8-5.1-5.8-4.3
	c-4.9,1.4-9.7,2.9-14.6,4.5c-2.7,0.9-4,3.4-3.2,5.9c0.7,2.3,3.2,3.7,5.8,2.9c4.9-1.4,9.7-3,14.6-4.6
	C423.2,265.8,424.2,264.2,424.2,262z M359.4,256.8c0.1,3.6,3,6.5,6.5,6.5c3.6,0,6.8-3.2,6.7-6.7c-0.1-3.7-3.2-6.6-6.9-6.5
	C362.2,250.3,359.4,253.2,359.4,256.8z"/>
<path class="st11" d="M336.7,184.2c-1.5,8.5-2.8,17-6.9,24.7c-1.6,3.1-3.5,6.2-7.7,6.4c-3.4-0.7-5.2-3.2-6.6-6
	c-3.4-6.8-4.7-14.1-6-21.5c-0.2-1.3-0.4-2.6-0.6-3.8C318.2,182.8,327.5,183.2,336.7,184.2z"/>
<path class="st11" d="M301.4,184.5c-0.9,7-2.2,13.9-5,20.3c-1.4,3.1-2.7,6.7-6.9,6.6c-4-0.1-5.2-3.6-6.5-6.6
	c-2.3-5.2-3.2-10.7-4.2-16.2C286.2,186.5,293.7,185.2,301.4,184.5z"/>
<path class="st11" d="M366.9,189.5c-1.3,5.7-2.3,11.6-5.2,16.8c-0.5,1-1.1,1.9-1.8,2.8c-2.8,3.3-6,3.1-8.5-0.3
	c-3.3-4.5-4.3-9.9-5.5-15.1c-0.6-2.8-0.9-5.7-1.3-8.6C352.1,185.7,359.5,187.5,366.9,189.5z"/>
<path class="st12" d="M399.1,445.3c-2.8,0-5.6-0.1-8.4,0c-1.6,0-2.3-0.5-2.3-2.2c-0.2-6.1-0.3-6.1,5.7-6.1c4.5,0,9,0.1,13.5,0
	c2-0.1,2.8,0.5,2.8,2.7c-0.2,6.8,0.8,5.5-5.5,5.6C402.9,445.4,401,445.3,399.1,445.3z"/>
<path class="st1" d="M230,436.1c0-6.4,0-6.4,6.2-6.4c5.9,0,5.9,0,5.9,6.1c0,6.7,0,6.7-6.5,6.7C230,442.4,230,442.4,230,436.1z"/>
<path class="st12" d="M296,452.7c2.5,0.1,5.1,0.4,7.5,1.6c1.5,0.7,2.6,1.9,2.6,3.7c0,1.9-1,3.1-2.5,3.8c-5.2,2.4-10.5,2.3-15.6-0.1
	c-3.3-1.6-3.2-5.3-0.1-7.2C290.3,453,293.1,452.8,296,452.7z"/>
<path class="st12" d="M244.9,453.3c3.4,0,6.2,0.2,8.8,1.6c3.1,1.7,3.3,5.3,0.1,6.8c-5.4,2.6-11.1,2.5-16.5,0
	c-2.8-1.3-2.8-4.9-0.1-6.5C239.7,453.5,242.6,453.3,244.9,453.3z"/>
<path class="st1" d="M340.1,427.9c4.2,0,7.4,2.7,7.4,6.3c0,3.7-3.2,6.5-7.6,6.4c-4.2,0-7.4-2.8-7.3-6.4
	C332.7,430.6,335.9,427.9,340.1,427.9z"/>
<path class="st13" d="M322.2,285c3.8,1.1,4.8,2.2,4.8,6.1c0,0.4,0.1,0.8,0,1.2c-1.3,6.5,2.6,10.2,7.3,13.5
	c5.1,3.6,10.6,4.6,16.5,2.4c3.5-1.3,6.5-3.5,9.3-6c2.6-2.3,5.3-2.5,7.2-0.4c2,2.1,1.7,5-1,7.4c-8.3,7.3-17.5,11.7-28.9,8.4
	c-4.8-1.4-8.9-4.1-12.6-7.5c-1.5-1.4-2.1-0.8-2.7,0.7c-4.9,5.2-10.6,9-18,9.1c-9.4,0.1-17.3-3.8-24.5-9.4c-1.9-1.5-2.1-4.4-0.7-6.3
	c1.4-2,4.3-2.5,6.5-0.9c3.4,2.5,7,4.7,11,6.1c8.2,2.8,14.1,1,19.4-5.9c1.4-1.8,2.1-3.6,1.9-5.8c-0.1-2.2,0-4.4,0-6.6
	C317.6,287.8,319,285.7,322.2,285z"/>
<path class="st14" d="M223.4,287.4c-2.4,0-4.8,0.1-7.2,0c-3-0.1-4.9-2-4.9-4.6c0-2.6,1.8-4.7,4.8-4.7c5.1-0.1,10.2-0.1,15.3,0
	c2.8,0.1,4.6,2.1,4.7,4.6c0,2.6-1.9,4.6-4.8,4.7C228.6,287.5,226,287.4,223.4,287.4z"/>
<path class="st13" d="M219.5,257.4c2,0.6,4.2,1.2,6.3,1.9c3.1,0.9,6.1,1.8,9.1,2.9c2.6,0.9,3.9,3.4,3.2,5.7
	c-0.7,2.4-3.1,3.9-5.7,3.2c-5.1-1.5-10.2-3-15.1-4.8c-2.3-0.8-3.4-2.9-2.8-5.3C215.2,258.7,216.9,257.6,219.5,257.4z"/>
<path class="st13" d="M238.4,299.7c-0.1,2.2-1.3,3.8-3.6,4.5c-4.7,1.5-9.3,3-14,4.4c-3,0.9-5.5-0.5-6.2-3.1
	c-0.7-2.4,0.7-4.8,3.5-5.8c4.6-1.5,9.1-3,13.7-4.3C235.3,294.4,238.3,296.4,238.4,299.7z"/>
<path class="st5" d="M322.3,267.1c2.4,0.4,4.8,0.6,7.1,1.2c2.2,0.5,3.4,2.4,2.3,4.3c-2.1,3.6-4.7,6.9-7.8,9.9
	c-0.4,0.4-1.1,0.5-1.7,0.7c-4.5-2.3-7-6.6-10.1-10.3c-1.3-1.6,0.1-3.9,2.4-4.5C317.1,267.8,319.7,267.5,322.3,267.1z"/>
<path class="st13" d="M265.5,256.8c0-3.7,2.9-6.7,6.6-6.7c3.6,0,6.5,3,6.6,6.5c0.1,3.6-3.1,6.8-6.7,6.7
	C268.5,263.3,265.6,260.4,265.5,256.8z"/>
<path class="st14" d="M415.1,287.4c-2.3,0-4.6,0-6.9,0c-3.3-0.1-5.5-2-5.5-4.7c0-2.6,2.2-4.6,5.3-4.6c4.8-0.1,9.6-0.1,14.4,0
	c3,0.1,5.2,2.2,5.2,4.7c0,2.6-2.2,4.5-5.3,4.6C419.9,287.5,417.5,287.4,415.1,287.4z"/>
<path class="st13" d="M405.7,295c1.8,0.6,4,1.2,6.2,1.9c3,0.9,6.1,1.8,9.1,2.9c2.6,0.9,3.7,3.3,3.1,5.8c-0.6,2.2-2.9,3.8-5.4,3.1
	c-5.2-1.4-10.3-3.1-15.4-4.8c-2.4-0.8-3.2-3-2.7-5.4C401.2,296.1,403,295.2,405.7,295z"/>
<path class="st13" d="M424.2,262c0,2.3-1,3.8-3.2,4.5c-4.8,1.6-9.7,3.2-14.6,4.6c-2.6,0.8-5.1-0.6-5.8-2.9c-0.8-2.5,0.5-5,3.2-5.9
	c4.8-1.6,9.7-3.1,14.6-4.5C421.4,256.8,424.2,259,424.2,262z"/>
<path class="st13" d="M359.4,256.8c-0.1-3.6,2.7-6.6,6.3-6.7c3.7-0.1,6.8,2.8,6.9,6.5c0.1,3.6-3.1,6.8-6.7,6.7
	C362.4,263.3,359.5,260.4,359.4,256.8z"/>
</svg>
